<svg id="svg" version="1.1" xmlns="http://www.w3.org/2000/svg" xmlns:xlink="http://www.w3.org/1999/xlink" width="400" height="531.0344827586207" viewBox="0, 0, 400,531.0344827586207"><g id="svgg"><path id="path0" d="M192.028 15.221 C 176.081 54.003,141.679 73.216,83.499 75.835 L 44.585 77.586 22.293 106.502 C -3.220 139.594,-2.980 138.627,8.994 160.051 C 18.508 177.073,18.597 177.967,17.344 243.659 C 15.655 332.169,44.077 387.345,121.438 445.741 C 167.141 480.241,191.339 504.804,194.701 520.114 C 197.766 534.067,202.234 534.067,205.299 520.114 C 208.645 504.880,231.780 481.376,277.769 446.487 C 357.957 385.654,384.941 332.925,382.733 241.379 C 381.214 178.358,381.334 177.174,390.935 160.792 C 403.215 139.838,403.109 139.409,377.455 105.899 L 354.909 76.449 316.248 75.294 C 259.049 73.584,222.915 53.425,208.259 15.049 C 201.115 -3.657,199.785 -3.643,192.028 15.221 M208.171 49.798 C 224.435 74.620,270.347 93.103,315.738 93.103 L 344.655 93.103 361.866 114.655 C 381.108 138.751,381.823 141.233,373.276 154.285 C 368.145 162.120,367.215 172.304,367.066 222.267 C 366.744 330.065,345.983 372.401,262.079 436.364 C 244.056 450.103,222.759 467.730,214.752 475.535 L 200.194 489.725 183.718 473.921 C 174.656 465.229,153.276 447.556,136.207 434.649 C 53.406 372.034,33.256 330.626,32.926 222.414 C 32.788 176.868,31.706 165.193,26.724 155.505 C 18.501 139.510,18.617 139.095,38.134 114.655 L 55.345 93.103 84.262 93.103 C 129.653 93.103,175.565 74.620,191.829 49.798 C 198.735 39.258,201.265 39.258,208.171 49.798 M171.762 172.016 C 138.522 179.050,66.310 231.366,51.409 259.210 C 45.276 270.669,91.503 317.441,131.838 340.587 C 196.247 377.548,277.699 354.700,337.913 282.780 C 355.332 261.975,355.457 262.291,314.850 224.298 C 266.849 179.389,219.199 161.978,171.762 172.016 M237.016 212.651 C 255.464 227.561,263.429 242.828,263.581 263.572 C 264.138 339.503,157.019 352.542,137.615 278.905 C 122.897 223.051,192.492 176.664,237.016 212.651 M201.298 232.289 C 206.256 252.041,188.587 268.754,167.092 264.645 C 153.023 261.955,162.539 287.820,179.251 297.692 C 211.764 316.898,251.051 284.693,236.639 250.648 C 227.620 229.340,196.501 213.175,201.298 232.289 " stroke="none" fill="#ffffff" fill-rule="evenodd"></path></g></svg>