<?xml version="1.0" standalone="no"?>
<!DOCTYPE svg PUBLIC "-//W3C//DTD SVG 20010904//EN"
 "http://www.w3.org/TR/2001/REC-SVG-20010904/DTD/svg10.dtd">
<svg version="1.0" xmlns="http://www.w3.org/2000/svg"
 width="1062.000000pt" height="1062.000000pt" viewBox="0 0 1062.000000 1062.000000"
 preserveAspectRatio="xMidYMid meet">
<metadata>
Created by potrace 1.11, written by Peter Selinger 2001-2013
</metadata>
<g transform="translate(0.000000,1062.000000) scale(0.100000,-0.100000)"
fill="#000000" stroke="none">
<path d="M5283 10577 c-30 -32 -63 -96 -122 -236 -80 -188 -184 -371 -266
-469 -11 -13 -28 -33 -38 -45 -19 -23 -151 -157 -177 -181 -8 -7 -49 -39 -90
-70 -41 -31 -84 -63 -95 -71 -10 -8 -25 -15 -32 -15 -7 0 -13 -3 -13 -8 0 -4
-35 -25 -77 -47 -43 -22 -79 -43 -81 -47 -2 -5 -9 -8 -16 -8 -7 0 -34 -11 -62
-24 -130 -62 -423 -152 -593 -181 -47 -8 -84 -14 -106 -19 -25 -5 -121 -18
-155 -21 -14 -1 -52 -6 -85 -9 -80 -9 -173 -16 -268 -20 -43 -2 -81 -6 -84 -9
-3 -4 -13 -2 -23 3 -10 5 -20 7 -23 4 -5 -6 -41 -8 -302 -19 -411 -16 -366 -6
-435 -95 -19 -25 -38 -46 -42 -48 -4 -2 -8 -8 -8 -13 0 -8 -48 -71 -111 -147
-10 -12 -19 -27 -19 -32 0 -6 -4 -10 -9 -10 -5 0 -19 -16 -31 -35 -12 -20 -27
-41 -34 -48 -6 -6 -48 -59 -91 -117 -44 -58 -82 -107 -85 -110 -3 -3 -21 -25
-40 -50 -19 -25 -38 -46 -42 -48 -4 -2 -8 -8 -8 -14 0 -9 -17 -32 -72 -98 -7
-8 -35 -49 -63 -90 -27 -41 -53 -76 -57 -78 -5 -2 -8 -10 -8 -17 0 -7 -3 -15
-7 -17 -11 -4 -59 -106 -70 -148 -12 -45 -9 -140 5 -167 6 -11 8 -23 5 -27 -3
-3 -1 -6 5 -6 7 0 12 -7 12 -15 0 -16 64 -141 132 -258 99 -171 138 -292 155
-482 6 -73 7 -656 2 -1175 -4 -393 8 -643 41 -892 6 -43 13 -90 14 -105 6 -43
16 -103 26 -153 6 -25 12 -56 14 -70 10 -60 37 -186 43 -200 3 -8 8 -24 10
-35 2 -11 11 -45 20 -75 9 -30 17 -59 19 -65 9 -42 103 -307 134 -380 26 -60
133 -284 146 -305 8 -14 28 -50 44 -80 37 -68 33 -62 159 -255 57 -88 107
-162 111 -165 4 -3 33 -38 64 -79 54 -72 133 -167 168 -203 10 -10 16 -18 14
-18 -19 0 406 -423 543 -539 26 -22 59 -51 73 -63 13 -13 44 -39 68 -58 24
-19 48 -40 54 -45 15 -14 126 -104 167 -135 18 -14 67 -52 110 -85 42 -33 90
-69 105 -80 15 -11 32 -24 38 -30 6 -5 34 -27 61 -47 28 -21 55 -41 60 -46 6
-4 44 -34 85 -67 123 -98 232 -186 240 -195 3 -3 17 -15 32 -26 26 -20 97 -82
212 -184 89 -79 370 -362 427 -430 30 -36 56 -67 59 -70 12 -12 110 -159 110
-165 0 -4 8 -19 18 -33 10 -15 29 -61 41 -102 65 -213 83 -250 121 -250 27 0
71 68 85 130 14 63 58 196 66 201 6 3 10 9 10 13 -1 9 12 40 18 46 4 3 19 25
35 50 31 49 102 145 126 170 8 9 30 34 48 55 71 84 238 249 391 385 41 36 90
80 110 98 20 18 57 49 84 69 26 21 47 41 47 45 0 4 5 8 11 8 7 0 19 8 28 18
16 17 215 176 380 303 46 35 98 76 116 91 18 16 38 28 44 28 6 0 11 4 11 9 0
5 16 19 36 32 20 12 43 29 52 38 10 10 49 41 87 71 39 30 72 57 75 60 3 3 32
28 65 55 80 67 113 95 144 123 14 13 53 47 86 75 80 70 405 395 480 481 33 38
67 76 75 85 8 9 31 37 50 61 19 25 37 47 40 50 27 26 240 325 240 337 0 4 11
21 25 37 14 17 28 40 31 53 4 13 9 23 13 23 4 0 20 26 36 58 16 31 31 59 35
62 7 6 100 196 132 268 29 67 41 96 43 102 1 3 7 19 14 35 39 93 118 340 146
455 19 78 33 144 40 185 3 17 8 37 10 45 6 20 15 77 20 115 2 17 5 44 8 60 31
171 68 600 57 650 -1 6 -1 15 0 20 5 18 5 615 0 615 -8 0 -5 895 3 970 7 64
23 151 34 180 3 8 7 20 8 26 5 24 60 139 67 142 4 2 8 12 8 23 0 10 4 19 9 19
5 0 11 8 14 18 6 17 37 72 47 82 10 10 116 215 112 215 -1 0 5 20 12 45 19 63
9 201 -15 216 -5 3 -9 14 -9 25 0 10 -4 19 -10 19 -5 0 -10 6 -10 14 0 12
-134 223 -150 236 -3 3 -22 28 -41 55 -18 28 -36 52 -40 55 -3 3 -18 23 -35
45 -16 22 -33 45 -39 51 -5 6 -17 21 -25 34 -8 12 -25 34 -36 48 -68 84 -174
223 -174 228 0 3 -9 15 -21 27 -11 12 -35 42 -52 67 -17 25 -34 47 -37 50 -3
3 -43 53 -89 113 -45 59 -90 107 -99 108 -9 0 -67 2 -128 3 -61 2 -116 6 -123
10 -6 4 -11 2 -11 -4 0 -6 -5 -8 -11 -4 -6 3 -86 8 -177 9 -189 4 -440 14
-522 21 -154 13 -171 15 -305 35 -93 14 -115 18 -245 46 -14 3 -29 6 -35 7 -5
1 -16 5 -22 9 -7 5 -13 6 -13 3 0 -2 -15 0 -32 5 -18 6 -57 17 -87 25 -30 8
-61 20 -68 26 -7 6 -13 8 -13 4 0 -14 -250 93 -355 153 -33 19 -70 39 -82 45
-13 6 -23 14 -23 19 0 4 -5 7 -11 7 -13 0 -129 85 -175 127 -19 18 -34 31 -34
28 0 -6 -133 134 -166 175 -16 19 -31 37 -35 40 -10 8 -109 159 -109 165 0 4
-13 25 -29 48 -16 23 -28 44 -28 47 0 3 -9 23 -20 45 -11 22 -44 101 -73 175
-30 74 -57 137 -60 140 -3 3 -12 19 -19 37 -24 60 -65 76 -98 40z m88 -827
c20 -16 58 -62 85 -102 27 -40 58 -83 69 -97 37 -47 181 -186 229 -221 26 -19
52 -40 59 -46 24 -21 156 -104 166 -104 5 0 11 -4 13 -9 4 -11 310 -161 329
-161 8 0 19 -4 24 -9 10 -8 231 -87 270 -96 11 -2 63 -16 115 -30 52 -14 107
-28 122 -30 15 -2 44 -8 65 -14 34 -9 83 -18 138 -25 11 -2 34 -6 50 -9 17 -3
57 -9 90 -13 33 -3 74 -7 90 -9 81 -10 270 -15 565 -16 179 0 334 -3 345 -6
11 -3 67 -66 125 -140 58 -74 110 -140 116 -146 36 -40 274 -349 274 -357 0
-6 4 -10 9 -10 9 0 94 -128 125 -188 24 -47 29 -68 30 -137 1 -66 -15 -106
-91 -230 -66 -106 -86 -179 -109 -390 -9 -83 -15 -303 -19 -665 -6 -450 -13
-829 -19 -926 -2 -38 -7 -117 -12 -175 -4 -57 -8 -122 -10 -144 -4 -70 -31
-300 -34 -300 -1 0 -3 -13 -5 -30 -2 -16 -6 -48 -9 -70 -5 -43 -13 -86 -22
-125 -3 -14 -7 -38 -8 -55 -10 -91 -87 -389 -143 -555 -62 -187 -184 -457
-270 -602 -81 -136 -190 -299 -250 -373 -5 -5 -33 -41 -63 -80 -30 -38 -66
-81 -80 -96 -14 -14 -52 -57 -85 -95 -73 -82 -299 -308 -385 -384 -34 -30 -79
-71 -100 -90 -21 -19 -62 -55 -91 -80 -29 -25 -58 -51 -65 -57 -7 -7 -17 -13
-22 -13 -6 0 -12 -4 -14 -9 -3 -7 -112 -100 -176 -148 -13 -10 -30 -24 -38
-31 -7 -7 -55 -45 -106 -83 -51 -39 -94 -74 -96 -80 -2 -5 -9 -9 -15 -9 -10 0
-29 -15 -107 -82 -8 -7 -40 -31 -70 -53 -30 -21 -62 -46 -70 -55 -8 -8 -44
-37 -80 -65 -68 -52 -85 -65 -128 -103 -15 -12 -33 -28 -41 -34 -62 -51 -206
-171 -216 -181 -7 -7 -34 -30 -60 -52 -55 -46 -180 -163 -304 -285 -48 -47
-101 -98 -118 -114 l-31 -28 -99 95 c-213 206 -270 260 -327 310 -33 29 -69
60 -80 71 -12 10 -73 62 -136 115 -63 52 -120 100 -126 106 -6 5 -28 24 -50
40 -36 28 -85 69 -145 118 -15 12 -42 33 -59 47 -18 14 -59 46 -91 73 -32 26
-62 47 -68 47 -5 0 -11 3 -13 8 -1 4 -52 45 -113 92 -60 46 -146 113 -190 148
-44 35 -87 69 -95 75 -32 25 -142 116 -190 157 -263 225 -570 528 -686 676
-16 20 -41 51 -56 68 -15 17 -50 63 -78 101 -28 39 -57 78 -65 87 -7 9 -19 27
-26 40 -6 13 -15 25 -18 28 -13 10 -71 107 -71 118 0 7 -4 12 -10 12 -5 0 -10
7 -10 15 0 8 -3 15 -7 15 -5 0 -13 10 -19 23 -6 12 -38 74 -70 137 -33 63 -79
162 -103 220 -24 58 -47 114 -51 125 -13 30 -30 89 -29 99 0 5 -3 12 -8 15 -7
5 -19 39 -38 111 -2 8 -4 16 -4 18 -1 1 -1 3 0 5 0 1 -4 14 -10 30 -6 15 -13
38 -15 50 -2 12 -9 42 -16 67 -12 44 -15 58 -25 102 -21 96 -29 135 -30 148
-2 8 -5 31 -9 50 -15 81 -26 148 -31 190 -3 25 -7 59 -10 75 -10 77 -15 126
-21 195 -3 41 -8 91 -10 110 -2 19 -6 73 -9 120 -3 47 -8 112 -10 145 -6 79
-15 481 -20 940 -4 350 -9 505 -20 620 -3 28 -8 74 -10 103 -12 128 -44 225
-131 407 -53 110 -57 126 -58 191 -1 61 3 79 34 139 19 37 39 73 45 79 5 6 26
34 45 61 37 53 39 56 71 95 12 14 35 44 52 68 17 23 34 42 39 42 4 0 8 7 8 15
0 7 6 18 13 22 7 4 48 54 92 111 44 56 83 102 87 102 5 0 8 6 8 14 0 8 4 16 8
18 5 2 34 36 66 77 31 40 67 86 80 101 l23 28 369 1 c203 1 398 3 434 6 124
11 256 25 284 32 12 2 35 6 51 7 85 9 382 78 473 110 23 8 42 13 42 9 0 -3 6
0 13 6 8 6 22 12 33 14 10 2 32 9 47 15 16 7 32 12 37 12 4 0 21 7 36 15 16 8
37 15 47 15 9 0 17 5 17 12 0 6 3 9 6 5 4 -3 28 5 55 18 27 14 55 25 64 25 8
0 15 4 15 9 0 5 12 12 26 15 14 4 43 18 65 32 21 13 39 22 39 18 0 -3 7 2 16
10 8 9 22 16 30 16 8 0 14 5 14 10 0 6 5 10 10 10 9 0 124 71 165 102 155 115
259 222 353 360 97 141 145 165 213 108z"/>
<path d="M5157 7234 c-1 -1 -38 -5 -82 -8 -188 -15 -323 -39 -460 -82 -74 -23
-224 -85 -272 -111 -24 -13 -43 -21 -43 -17 0 4 -6 2 -12 -4 -7 -5 -53 -31
-103 -57 -252 -132 -700 -418 -880 -562 -5 -5 -62 -49 -125 -98 -320 -251
-594 -511 -729 -692 -28 -37 -56 -74 -62 -81 -6 -8 -24 -38 -39 -68 -24 -48
-26 -61 -19 -100 23 -124 162 -324 399 -577 36 -38 70 -75 76 -81 42 -43 272
-254 329 -302 39 -32 75 -63 81 -69 6 -5 28 -23 49 -40 21 -16 55 -43 75 -60
21 -16 51 -40 66 -53 132 -104 413 -292 559 -374 118 -66 392 -188 455 -203 8
-2 35 -10 60 -19 25 -8 64 -20 88 -25 23 -6 61 -16 85 -22 59 -15 187 -38 304
-54 58 -8 251 -16 343 -14 120 2 153 4 330 24 42 5 103 15 155 26 28 6 64 13
80 16 17 3 55 11 85 20 30 8 60 16 65 17 86 23 119 33 170 52 11 4 25 8 32 10
10 2 115 41 168 63 11 5 22 9 25 9 18 3 287 133 355 172 165 93 200 115 203
122 2 4 8 8 13 8 9 0 68 38 79 51 3 3 16 12 30 19 25 14 156 106 176 125 6 5
26 21 44 35 55 41 95 75 98 83 2 4 8 7 13 7 6 0 20 10 33 23 12 12 51 47 86
77 83 71 328 315 407 405 99 113 103 117 162 190 31 39 62 76 69 83 6 8 26 33
42 57 125 182 88 294 -192 575 -115 115 -197 195 -450 432 -22 20 -62 56 -89
80 -28 23 -62 54 -77 68 -15 14 -45 39 -67 55 -22 17 -44 35 -50 41 -24 26
-203 159 -330 246 -150 102 -334 212 -455 270 -112 55 -244 114 -250 114 -5
-1 -53 18 -115 45 -24 11 -280 82 -350 97 -67 15 -201 36 -310 48 -49 5 -323
12 -328 8z m275 -620 c40 -2 84 -6 98 -9 14 -3 37 -8 51 -10 110 -16 311 -110
436 -204 124 -93 304 -274 351 -353 9 -15 20 -28 24 -28 4 0 8 -6 8 -14 0 -8
6 -21 13 -28 27 -27 110 -217 122 -278 2 -8 4 -15 5 -15 2 0 9 -31 15 -65 2
-14 7 -36 10 -50 3 -14 8 -68 11 -120 3 -52 7 -100 9 -106 2 -6 -1 -17 -5 -24
-5 -8 -4 -22 1 -31 6 -12 5 -20 -2 -24 -6 -4 -8 -13 -5 -21 4 -11 -13 -149
-28 -223 -12 -53 -74 -232 -85 -241 -3 -3 -7 -12 -9 -20 -5 -20 -74 -134 -84
-138 -4 -2 -8 -8 -8 -14 0 -29 -169 -206 -260 -274 -186 -136 -423 -230 -638
-251 -125 -12 -365 -4 -394 13 -5 3 -22 7 -36 9 -41 5 -72 13 -137 35 -33 12
-64 22 -70 23 -30 8 -175 81 -175 89 0 4 -5 8 -11 8 -7 0 -34 16 -60 35 -27
19 -51 35 -54 35 -3 0 -13 8 -23 18 -10 9 -38 35 -63 57 -82 75 -229 262 -229
292 0 6 -3 13 -7 15 -20 8 -122 251 -138 328 -2 8 -9 38 -15 65 -39 171 -33
398 17 565 9 30 17 60 19 67 4 21 37 95 76 169 86 169 222 327 383 448 83 62
185 126 203 126 6 0 12 5 12 12 0 6 3 9 6 5 3 -3 21 3 40 13 47 27 201 78 289
96 58 12 77 14 155 20 47 3 87 8 89 10 2 2 8 1 12 -2 5 -3 42 -7 81 -10z"/>
<path d="M5371 6129 c-36 -22 -43 -36 -44 -82 0 -37 11 -105 19 -118 6 -10 6
-142 1 -169 -20 -96 -50 -161 -105 -230 -45 -56 -48 -58 -97 -95 -131 -99
-284 -133 -496 -110 -97 11 -131 -19 -134 -115 -1 -42 52 -197 75 -220 3 -3
14 -21 24 -40 46 -84 177 -221 257 -269 93 -56 231 -111 278 -111 11 0 22 -4
25 -8 5 -9 228 -8 269 2 15 3 37 8 50 10 38 7 137 44 174 66 19 11 41 20 49
20 8 0 14 4 14 8 0 4 12 15 28 24 84 51 179 151 242 258 28 47 50 87 50 90 -1
3 6 22 15 43 8 20 12 37 9 37 -4 0 -2 6 4 13 6 6 10 14 10 17 0 3 3 28 8 55
37 241 -57 493 -258 695 -67 69 -218 189 -218 174 0 -3 -12 4 -28 14 -29 22
-107 49 -159 56 -19 2 -43 -3 -62 -15z"/>
</g>
</svg>
